<svg width="76" height="80" viewBox="0 0 76 80" fill="none" xmlns="http://www.w3.org/2000/svg">
<path d="M8.83333 0.333332H17.1667V12.8333H8.83333V0.333332ZM25.5 0.333332H33.8333V12.8333H25.5V0.333332ZM42.1667 0.333332H50.5V12.8333H42.1667V0.333332ZM67.1667 29.5H58.8333V21.1667H0.5V67C0.5 73.8917 6.10833 79.5 13 79.5H46.3333C53.225 79.5 58.8333 73.8917 58.8333 67H67.1667C71.7625 67 75.5 63.2625 75.5 58.6667V37.8333C75.5 33.2375 71.7625 29.5 67.1667 29.5ZM50.5 67C50.5 68.1051 50.061 69.1649 49.2796 69.9463C48.4982 70.7277 47.4384 71.1667 46.3333 71.1667H13C11.8949 71.1667 10.8351 70.7277 10.0537 69.9463C9.27232 69.1649 8.83333 68.1051 8.83333 67V29.5H50.5V67ZM58.8333 58.6667V37.8333H67.1667L67.175 58.6667H58.8333Z" fill="black"/>
</svg>
