<svg width="101" height="101" viewBox="0 0 101 101" fill="none" xmlns="http://www.w3.org/2000/svg">
<path d="M0.828369 87.294C0.828369 94.4158 6.60142 100.188 13.7225 100.188H87.9338C95.0561 100.188 100.828 94.4151 100.828 87.294V13.0826C100.828 5.96038 95.0553 0.18811 87.9342 0.18811H13.7229C6.60063 0.18811 0.828369 5.96116 0.828369 13.0823V87.2936V87.294Z" fill="#563D7C"/>
<path d="M42.2964 44.4217V30.2604H54.7616C55.9491 30.2604 57.0937 30.3592 58.196 30.5573C59.2984 30.7549 60.2738 31.108 61.1218 31.617C61.9695 32.126 62.648 32.8326 63.157 33.7369C63.6656 34.6416 63.9202 35.8006 63.9202 37.2135C63.9202 39.7576 63.157 41.5951 61.6304 42.7256C60.1042 43.8565 58.1538 44.4217 55.7792 44.4217H42.2964ZM28.9827 19.9147V80.4615H58.3234C61.037 80.4615 63.68 80.1225 66.2523 79.444C68.8246 78.7655 71.114 77.7198 73.1211 76.3065C75.1277 74.8932 76.725 73.0697 77.9121 70.8369C79.0996 68.6037 79.6929 65.9608 79.6929 62.908C79.6929 59.1201 78.7742 55.8838 76.9371 53.1987C75.0996 50.5131 72.3152 48.6334 68.5839 47.5592C71.2976 46.2592 73.3472 44.5912 74.7324 42.5561C76.1172 40.5209 76.8097 37.9772 76.8097 34.924C76.8097 32.0975 76.3433 29.7233 75.4105 27.801C74.4777 25.8791 73.1632 24.3385 71.4671 23.1795C69.7714 22.0205 67.7363 21.1865 65.3617 20.678C62.9874 20.169 60.3585 19.9147 57.4753 19.9147H28.9827ZM42.2964 70.1158V53.4951H56.7968C59.68 53.4951 61.998 54.1592 63.7507 55.4881C65.5031 56.8166 66.3796 59.0354 66.3796 62.1447C66.3796 63.728 66.1109 65.028 65.5738 66.0455C65.0367 67.0631 64.316 67.869 63.4113 68.4623C62.507 69.0561 61.4609 69.4799 60.2738 69.7346C59.0863 69.9885 57.8429 70.1158 56.5425 70.1158H42.2964Z" fill="white"/>
</svg>
