<svg width="84" height="76" viewBox="0 0 84 76" fill="none" xmlns="http://www.w3.org/2000/svg">
<path d="M75.3333 0.5H8.66659C4.07075 0.5 0.333252 4.2375 0.333252 8.83333V67.1667C0.333252 71.7625 4.07075 75.5 8.66659 75.5H75.3333C79.9291 75.5 83.6666 71.7625 83.6666 67.1667V8.83333C83.6666 4.2375 79.9291 0.5 75.3333 0.5ZM8.66659 67.1667V17.1667H75.3333L75.3416 67.1667H8.66659Z" fill="black"/>
<path d="M30.7207 26.7208L15.2749 42.1667L30.7207 57.6125L36.6124 51.7208L27.0582 42.1667L36.6124 32.6125L30.7207 26.7208ZM53.2791 26.7208L47.3874 32.6125L56.9416 42.1667L47.3874 51.7208L53.2791 57.6125L68.7249 42.1667L53.2791 26.7208Z" fill="black"/>
</svg>
