<svg width="20" height="20" viewBox="0 0 20 20" fill="none" xmlns="http://www.w3.org/2000/svg">
<path d="M8.00008 15.5501L6.23008 17.2701C5.76595 17.7342 5.13646 17.995 4.48008 17.995C3.8237 17.995 3.19421 17.7342 2.73008 17.2701C2.26595 16.806 2.00521 16.1765 2.00521 15.5201C2.00521 14.8637 2.26595 14.2342 2.73008 13.7701L7.27008 9.22009C7.71569 8.77304 8.3161 8.51437 8.94709 8.49762C9.57809 8.48087 10.1914 8.70731 10.6601 9.13009L10.7801 9.23009C10.9697 9.41575 11.2253 9.51846 11.4907 9.51565C11.7561 9.51284 12.0094 9.40472 12.1951 9.21509C12.3807 9.02547 12.4835 8.76985 12.4806 8.50449C12.4778 8.23912 12.3697 7.98575 12.1801 7.80009C12.1236 7.72712 12.0636 7.65703 12.0001 7.59009C11.1464 6.84741 10.0424 6.45694 8.91165 6.49779C7.78088 6.53864 6.70791 7.00775 5.91008 7.81009L1.31008 12.3601C0.528437 13.2109 0.105701 14.3308 0.130155 15.4858C0.154609 16.6409 0.624362 17.7419 1.44131 18.5589C2.25826 19.3758 3.35924 19.8456 4.51433 19.87C5.66941 19.8945 6.78929 19.4717 7.64008 18.6901L9.37008 17.0001C9.5409 16.8137 9.6348 16.5696 9.63289 16.3168C9.63098 16.064 9.5334 15.8214 9.35979 15.6376C9.18618 15.4539 8.94942 15.3427 8.69715 15.3264C8.44488 15.3102 8.19582 15.3901 8.00008 15.5501ZM18.6901 1.31009C17.8489 0.474102 16.7111 0.00488281 15.5251 0.00488281C14.3391 0.00488281 13.2013 0.474102 12.3601 1.31009L10.6301 3.00009C10.4593 3.18644 10.3654 3.43057 10.3673 3.68336C10.3692 3.93615 10.4668 4.17883 10.6404 4.36258C10.814 4.54633 11.0507 4.65751 11.303 4.67375C11.5553 4.68998 11.8043 4.61007 12.0001 4.45009L13.7301 2.73009C14.1942 2.26597 14.8237 2.00522 15.4801 2.00522C16.1365 2.00522 16.766 2.26597 17.2301 2.73009C17.6942 3.19422 17.955 3.82372 17.955 4.48009C17.955 5.13647 17.6942 5.76596 17.2301 6.23009L12.6901 10.7801C12.2445 11.2272 11.6441 11.4858 11.0131 11.5026C10.3821 11.5193 9.76879 11.2929 9.30008 10.8701L9.18008 10.7701C8.99045 10.5844 8.73484 10.4817 8.46947 10.4845C8.20411 10.4874 7.95073 10.5955 7.76508 10.7851C7.57943 10.9747 7.47671 11.2303 7.47952 11.4957C7.48234 11.7611 7.59045 12.0144 7.78008 12.2001C7.85272 12.2744 7.92951 12.3445 8.01008 12.4101C8.86476 13.1505 9.96831 13.5395 11.0984 13.4987C12.2285 13.4579 13.3011 12.9903 14.1001 12.1901L18.6501 7.64009C19.4914 6.80417 19.9678 5.66932 19.9753 4.48334C19.9828 3.29736 19.5208 2.15659 18.6901 1.31009Z" fill="black"/>
</svg>
