<svg width="20" height="20" viewBox="0 0 20 20" fill="none" xmlns="http://www.w3.org/2000/svg">
<path d="M19.41 6.64013C19.41 6.64013 19.41 6.64013 19.41 6.59013C18.7053 4.66635 17.4269 3.00541 15.7474 1.83199C14.068 0.658569 12.0687 0.0292969 10.02 0.0292969C7.9712 0.0292969 5.97189 0.658569 4.29246 1.83199C2.61304 3.00541 1.33455 4.66635 0.629951 6.59013C0.629951 6.59013 0.629951 6.59013 0.629951 6.64013C-0.156924 8.81102 -0.156924 11.1892 0.629951 13.3601C0.629951 13.3601 0.629951 13.3601 0.629951 13.4101C1.33455 15.3339 2.61304 16.9948 4.29246 18.1683C5.97189 19.3417 7.9712 19.971 10.02 19.971C12.0687 19.971 14.068 19.3417 15.7474 18.1683C17.4269 16.9948 18.7053 15.3339 19.41 13.4101C19.41 13.4101 19.41 13.4101 19.41 13.3601C20.1968 11.1892 20.1968 8.81102 19.41 6.64013ZM2.25995 12.0001C1.91318 10.6893 1.91318 9.31091 2.25995 8.00013H4.11995C3.95998 9.32866 3.95998 10.6716 4.11995 12.0001H2.25995ZM3.07995 14.0001H4.47995C4.71467 14.892 5.05016 15.7542 5.47995 16.5701C4.49925 15.9021 3.67945 15.0242 3.07995 14.0001ZM4.47995 6.00013H3.07995C3.67082 4.97921 4.48014 4.10159 5.44995 3.43013C5.03051 4.24737 4.70509 5.10954 4.47995 6.00013ZM8.99995 17.7001C7.77172 16.7988 6.9091 15.4854 6.56995 14.0001H8.99995V17.7001ZM8.99995 12.0001H6.13995C5.95334 10.6733 5.95334 9.32693 6.13995 8.00013H8.99995V12.0001ZM8.99995 6.00013H6.56995C6.9091 4.51489 7.77172 3.20144 8.99995 2.30013V6.00013ZM16.92 6.00013H15.52C15.2852 5.10828 14.9497 4.24606 14.52 3.43013C15.5007 4.0982 16.3205 4.97607 16.92 6.00013ZM11 2.30013C12.2282 3.20144 13.0908 4.51489 13.43 6.00013H11V2.30013ZM11 17.7001V14.0001H13.43C13.0908 15.4854 12.2282 16.7988 11 17.7001ZM13.86 12.0001H11V8.00013H13.86C14.0466 9.32693 14.0466 10.6733 13.86 12.0001ZM14.55 16.5701C14.9797 15.7542 15.3152 14.892 15.55 14.0001H16.95C16.3505 15.0242 15.5307 15.9021 14.55 16.5701ZM17.74 12.0001H15.88C15.9613 11.3366 16.0014 10.6686 16 10.0001C16.0011 9.33163 15.961 8.6637 15.88 8.00013H17.74C18.0867 9.31091 18.0867 10.6893 17.74 12.0001Z" fill="black"/>
</svg>
