<svg width="75" height="87" viewBox="0 0 75 87" fill="none" xmlns="http://www.w3.org/2000/svg">
<path d="M33.625 86.6667C32.5139 86.6667 31.5597 86.2847 30.7625 85.5208C29.9625 84.757 29.5278 83.8195 29.4583 82.7083L27.5833 49.1667L14.3542 41.5625L12.8958 46.9792L19.25 58.125C19.8056 59.0972 19.9278 60.1389 19.6167 61.25C19.3028 62.3611 18.6597 63.1944 17.6875 63.75C16.7153 64.3056 15.6736 64.4445 14.5625 64.1667C13.4514 63.8889 12.6181 63.2639 12.0625 62.2917L4.77083 49.6875C4.49306 49.2014 4.31944 48.6806 4.25 48.125C4.18056 47.5694 4.21528 47.0139 4.35417 46.4583L8.41667 31.875C8.55556 31.3194 8.78055 30.8333 9.09167 30.4167C9.40555 30 9.80555 29.6528 10.2917 29.375L32.7917 16.4583L24.25 7.91667C23.4861 7.15278 23.0875 6.19722 23.0542 5.05C23.0181 3.90556 23.4167 2.91667 24.25 2.08333C25.0139 1.31944 25.9861 0.9375 27.1667 0.9375C28.3472 0.9375 29.3194 1.31944 30.0833 2.08333L42.4792 14.375C43.4514 15.3472 43.8514 16.5097 43.6792 17.8625C43.5042 19.2181 42.8264 20.2431 41.6458 20.9375L31.3333 26.875L36.3333 31.25L67.5833 5.72917C68.3472 5.03472 69.2681 4.73889 70.3458 4.84167C71.4208 4.94722 72.375 5.48611 73.2083 6.45833C73.8333 7.22222 74.1292 8.09028 74.0958 9.0625C74.0597 10.0347 73.6944 10.9028 73 11.6667L40.0833 45L38.2083 82.7083C38.1389 83.8195 37.7056 84.757 36.9083 85.5208C36.1083 86.2847 35.0139 86.6667 33.625 86.6667V86.6667ZM8.83333 24.1667C6.54167 24.1667 4.57917 23.35 2.94583 21.7167C1.31528 20.0861 0.5 18.125 0.5 15.8333C0.5 13.5417 1.31528 11.5792 2.94583 9.94583C4.57917 8.31528 6.54167 7.5 8.83333 7.5C11.125 7.5 13.0861 8.31528 14.7167 9.94583C16.35 11.5792 17.1667 13.5417 17.1667 15.8333C17.1667 18.125 16.35 20.0861 14.7167 21.7167C13.0861 23.35 11.125 24.1667 8.83333 24.1667Z" fill="black"/>
</svg>
